<?xml version="1.0" encoding="iso-8859-1"?>
<!-- Generator: Adobe Illustrator 19.0.0, SVG Export Plug-In . SVG Version: 6.00 Build 0)  -->
<svg version="1.1" id="Capa_1" xmlns="http://www.w3.org/2000/svg" xmlns:xlink="http://www.w3.org/1999/xlink" x="0px" y="0px"
	 viewBox="0 0 512 512" style="enable-background:new 0 0 512 512;" xml:space="preserve">
<rect x="216" y="111.33" width="266" height="280"/>
<rect x="30" y="111.33" style="fill:#272727;" width="226" height="280"/>
<polygon style="fill:#4D4D4D;" points="256,0 226,75.333 256,150.667 512,150.667 512,0 "/>
<rect style="fill:#737373;" width="256" height="150.67"/>
<polygon style="fill:#4D4D4D;" points="256,180.667 226,256 256,331.333 512,331.333 512,180.667 "/>
<rect y="180.67" style="fill:#737373;" width="256" height="150.67"/>
<polygon style="fill:#4D4D4D;" points="256,361.333 226,436.667 256,512 512,512 512,361.333 "/>
<rect y="361.33" style="fill:#737373;" width="256" height="150.67"/>
<g>
	<rect x="422" y="421.67" style="fill:#FEDC3D;" width="30" height="30"/>
	<rect x="422" y="241" style="fill:#FEDC3D;" width="30" height="30"/>
	<rect x="422" y="60.33" style="fill:#FEDC3D;" width="30" height="30"/>
</g>
<g>
</g>
<g>
</g>
<g>
</g>
<g>
</g>
<g>
</g>
<g>
</g>
<g>
</g>
<g>
</g>
<g>
</g>
<g>
</g>
<g>
</g>
<g>
</g>
<g>
</g>
<g>
</g>
<g>
</g>
</svg>
