<svg id="Flat" height="512" viewBox="0 0 512 512" width="512" xmlns="http://www.w3.org/2000/svg"><path d="m136 224h192v64h-192z" fill="#2b7cd4"/><path d="m136 288h192v64h-192z" fill="#3ea7ff"/><path d="m168 312h16v16h-16z" fill="#eb352f"/><path d="m200 312h16v16h-16z" fill="#f2e368"/><path d="m232 312h48v16h-48z" fill="#a0cc00"/><path d="m168 248h16v16h-16z" fill="#eb352f"/><path d="m200 248h16v16h-16z" fill="#f2e368"/><path d="m232 248h48v16h-48z" fill="#a0cc00"/><path d="m136 160h192v64h-192z" fill="#3ea7ff"/><path d="m168 184h16v16h-16z" fill="#eb352f"/><path d="m200 184h16v16h-16z" fill="#f2e368"/><path d="m232 184h48v16h-48z" fill="#a0cc00"/><path d="m328 160h48v64h-48z" fill="#2b7cd4"/><path d="m328 224h48v64h-48z" fill="#104f91"/><path d="m328 288h48v64h-48z" fill="#2b7cd4"/><g fill="#808080"><path d="m48 264h16v16h-16z"/><path d="m16 264h16v16h-16z"/><path d="m80 240h56v32h-56z"/><path d="m48 232h16v16h-16z"/><path d="m16 232h16v16h-16z"/><path d="m88 440h16v16h-16z"/><path d="m88 472h16v16h-16z"/><path d="m56 472h16v16h-16z"/><path d="m56 440h16v16h-16z"/><path d="m136 288-72 72v64h32v-48l40-40z"/><path d="m88 56h16v16h-16z"/><path d="m88 24h16v16h-16z"/><path d="m56 24h16v16h-16z"/><path d="m56 56h16v16h-16z"/><path d="m136 224-72-72v-64h32v48l40 40z"/><path d="m448 232h16v16h-16z"/><path d="m480 232h16v16h-16z"/><path d="m376 240h56v32h-56z"/><path d="m448 264h16v16h-16z"/><path d="m480 264h16v16h-16z"/><path d="m408 56h16v16h-16z"/><path d="m408 24h16v16h-16z"/><path d="m440 24h16v16h-16z"/><path d="m440 56h16v16h-16z"/><path d="m376 224 72-72v-64h-32v48l-40 40z"/><path d="m408 440h16v16h-16z"/><path d="m408 472h16v16h-16z"/><path d="m440 472h16v16h-16z"/><path d="m440 440h16v16h-16z"/><path d="m376 288 72 72v64h-32v-48l-40-40z"/></g></svg>